<svg id="Layer_1" data-name="Layer 1" xmlns="http://www.w3.org/2000/svg" viewBox="0 0 138.65 144.97"><defs><style>.cls-1,.cls-3{fill:#dbe8f3;}.cls-2,.cls-4{fill:none;}.cls-2,.cls-3{stroke:#16273a;stroke-linecap:round;stroke-linejoin:round;stroke-width:2.9px;}</style></defs><polygon class="cls-1" points="46.55 49.35 59.59 50.62 83.82 49.99 91.99 49.44 92.2 51.93 70.61 78.46 67.75 77.83 46.55 53.34 46.55 49.35"/><polyline class="cls-2" points="75.79 33.33 31.32 33.33 69.44 79.89 107.33 33.33 87.69 33.33"/><polyline class="cls-3" points="69.44 79.89 69.44 114.09 50.26 124.75 87.92 124.75 69.44 114.09"/><path class="cls-2" d="M44.22,49.09s27.38,3.45,50.29,0"/><line class="cls-2" x1="85.38" y1="27.69" x2="89.58" y2="20.22"/><line class="cls-2" x1="72.47" y1="50.62" x2="77.82" y2="41.11"/><line class="cls-1" x1="75.77" y1="50.62" x2="69.36" y2="62.75"/><ellipse class="cls-3" cx="81.51" cy="34.35" rx="7.7" ry="5.66" transform="translate(11.01 87.77) rotate(-60)"/><rect class="cls-4" width="138.65" height="144.97"/></svg>