<svg id="Layer_1" data-name="Layer 1" xmlns="http://www.w3.org/2000/svg" viewBox="0 0 138.65 144.97"><defs><style>.cls-1{fill:#dbe8f3;}.cls-2,.cls-5{fill:none;}.cls-2{stroke:#16273a;stroke-linecap:round;stroke-linejoin:round;stroke-width:2.9px;}.cls-3{fill:#fff;}.cls-4{fill:#16273a;}</style></defs><polygon class="cls-1" points="66.68 102.74 49.89 102.84 51.93 108.25 59.48 117.11 65.8 122.17 68.3 120.44 67.55 103.91 66.68 102.74"/><polygon class="cls-1" points="72.02 121.32 79.61 114.63 86.67 104.96 89.02 102.68 102.33 103.8 98.49 109.93 94.19 114.21 84.14 120.07 73.59 123.78 72.02 121.32"/><polygon class="cls-1" points="48.73 65.32 35.16 64.95 36.9 60.44 44.71 51.88 55.62 46.53 63.5 44.44 64.13 46.89 55.5 56.04 48.73 65.32"/><polygon class="cls-1" points="67.96 47.09 68.3 65.25 87.58 64.72 83.03 57.34 73.77 47.09 69.82 45.98 67.96 47.09"/><polygon class="cls-1" points="101.23 65.25 88.21 66.05 90.98 74.34 92.02 83.96 106.94 83.94 107.89 79.73 105.72 68.9 102.39 65.32 101.23 65.25"/><polygon class="cls-1" points="68.3 84.38 68.56 102.35 87.76 102.84 91.63 95.42 92.02 85.44 90.61 83.96 68.3 84.38"/><polygon class="cls-1" points="29.23 91.63 33.15 101.49 35.4 102.68 48.19 102.74 46.47 96.77 44.86 88.98 44.58 85.17 42.67 83.94 29.23 84.9 29.23 91.63"/><polygon class="cls-1" points="48.73 65.32 46.19 74.56 44.58 83.96 68.3 83.96 68.3 65.25 48.73 65.32"/><circle class="cls-2" cx="68.3" cy="83.96" r="39.82"/><line class="cls-2" x1="33.15" y1="102.68" x2="103.45" y2="102.68"/><line class="cls-2" x1="33.15" y1="65.25" x2="103.45" y2="65.25"/><line class="cls-2" x1="68.3" y1="14.06" x2="68.3" y2="123.73"/><path class="cls-2" d="M68.3,123.73S44.58,111.12,44.58,84,68.3,44.15,68.3,44.15"/><path class="cls-2" d="M68.3,123.73S92,111.12,92,84,68.3,44.15,68.3,44.15"/><line class="cls-2" x1="62.97" y1="14.06" x2="73.7" y2="14.06"/><circle class="cls-3" cx="33.18" cy="39.45" r="9.76"/><path class="cls-4" d="M33.18,50.66a1.45,1.45,0,0,1-1.45-1.45c0-5.43-2.87-8.31-8.31-8.31a1.45,1.45,0,1,1,0-2.9c5.44,0,8.31-2.87,8.31-8.31a1.45,1.45,0,1,1,2.9,0c0,5.44,2.88,8.31,8.31,8.31a1.45,1.45,0,1,1,0,2.9c-5.43,0-8.31,2.88-8.31,8.31A1.45,1.45,0,0,1,33.18,50.66ZM29.64,39.45A9.08,9.08,0,0,1,33.18,43a9,9,0,0,1,3.55-3.55,9,9,0,0,1-3.55-3.54A9.06,9.06,0,0,1,29.64,39.45Z"/><circle class="cls-3" cx="105.47" cy="124.26" r="9.76"/><path class="cls-4" d="M105.47,135.48A1.45,1.45,0,0,1,104,134c0-5.44-2.88-8.32-8.31-8.32a1.45,1.45,0,0,1,0-2.9c5.43,0,8.31-2.87,8.31-8.31a1.45,1.45,0,0,1,2.9,0c0,5.44,2.87,8.31,8.31,8.31a1.45,1.45,0,0,1,0,2.9c-5.44,0-8.31,2.88-8.31,8.32A1.45,1.45,0,0,1,105.47,135.48Zm-3.55-11.22a9.11,9.11,0,0,1,3.55,3.55,9.15,9.15,0,0,1,3.54-3.55,9.06,9.06,0,0,1-3.54-3.54A9,9,0,0,1,101.92,124.26Z"/><polyline class="cls-2" points="44.58 83.96 28.49 83.96 108.12 83.96"/><rect class="cls-5" width="138.65" height="144.97"/></svg>