<?xml version="1.0" encoding="utf-8"?>
<!-- Generator: Adobe Illustrator 25.4.1, SVG Export Plug-In . SVG Version: 6.00 Build 0)  -->
<svg version="1.1" id="Layer_1" xmlns="http://www.w3.org/2000/svg" xmlns:xlink="http://www.w3.org/1999/xlink" x="0px" y="0px"
	 viewBox="0 0 138.65 144.97" style="enable-background:new 0 0 138.65 144.97;" xml:space="preserve">
<style type="text/css">
	.st0{fill:#DBE8F3;}
	.st1{fill:#FFFFFF;}
	.st2{fill:#16273A;}
	.st3{fill:none;stroke:#16273A;stroke-width:1.7;stroke-linecap:round;stroke-linejoin:round;stroke-miterlimit:10;}
	.st4{fill:none;stroke:#16273A;stroke-width:2;stroke-linecap:round;stroke-linejoin:round;stroke-miterlimit:10;}
	.st5{fill:#FFFFFF;stroke:#16273A;stroke-width:2.5;stroke-linecap:round;stroke-linejoin:round;stroke-miterlimit:10;}
	.st6{fill:none;stroke:#16273A;stroke-width:2.5;stroke-linecap:round;stroke-linejoin:round;stroke-miterlimit:10;}
	.st7{fill:#16273A;stroke:#16273A;stroke-width:2.5;stroke-linecap:round;stroke-linejoin:round;stroke-miterlimit:10;}
	.st8{fill:#DBE8F3;stroke:#16273A;stroke-width:2.9;stroke-linecap:round;stroke-linejoin:round;stroke-miterlimit:10;}
	.st9{fill:#FFFFFF;stroke:#16273A;stroke-width:2.9;stroke-linecap:round;stroke-linejoin:round;stroke-miterlimit:10;}
	.st10{fill:none;stroke:#16273A;stroke-width:2.9;stroke-linecap:round;stroke-linejoin:round;stroke-miterlimit:10;}
	.st11{fill:#DBE8F3;stroke:#16273A;stroke-width:2.5;stroke-linecap:round;stroke-linejoin:round;stroke-miterlimit:10;}
	.st12{fill:none;stroke:#16273A;stroke-width:1.3131;stroke-linecap:round;stroke-linejoin:round;stroke-miterlimit:10;}
	.st13{fill:none;stroke:#16273A;stroke-width:1.0699;stroke-linecap:round;stroke-linejoin:round;stroke-miterlimit:10;}
	.st14{fill:none;}
	.st15{fill:#AD3992;}
	.st16{fill:none;stroke:#16273A;stroke-width:0.8062;stroke-linecap:round;stroke-linejoin:round;stroke-miterlimit:10;}
	.st17{fill:none;stroke:#AD3992;stroke-width:3;stroke-linecap:round;stroke-linejoin:round;stroke-miterlimit:10;}
</style>
<rect class="st14" width="138.65" height="144.97"/>
<g>
	<path class="st10" d="M100.09,74.34h2.96c6.86,0,12.42,5.56,12.42,12.42v0c0,6.86-5.56,12.42-12.42,12.42h-5.51"/>
	<path class="st10" d="M56.07,65.32c2.13-3.7,3.29-8.02,1.33-11.77c-0.68-1.3-1.71-2.48-2.52-3.74c-1.08-1.71-1.74-3.58-1.93-5.48
		c-0.22-2.26,0.41-4.8,2.78-6.14"/>
	<path class="st10" d="M66.82,65.32c3.05-5.29,4.71-11.46,1.9-16.83c-0.98-1.86-2.45-3.55-3.6-5.35c-1.55-2.44-2.49-5.12-2.76-7.83
		c-0.32-3.23,0.59-6.86,3.98-8.78"/>
	<path class="st10" d="M78.6,65.32c3.68-6.4,5.69-13.86,2.29-20.35c-1.18-2.25-2.96-4.29-4.35-6.47c-1.87-2.96-3.01-6.19-3.33-9.47
		c-0.38-3.9,0.71-8.29,4.81-10.61"/>
	<path class="st8" d="M100.09,65.32v21.02c0,18.6-15.16,33.68-33.85,33.68h0c-18.7,0-33.85-15.08-33.85-33.68V65.6L100.09,65.32z"/>
	<path class="st10" d="M88.78,88.15c0,11.5-9.37,20.82-20.92,20.82h0"/>
	<path class="st9" d="M93.67,125.38H38.8c-5.31,0-9.62-4.31-9.62-9.62v0h74.1v0C103.28,121.07,98.98,125.38,93.67,125.38z"/>
</g>
</svg>
