<?xml version="1.0" encoding="utf-8"?>
<!-- Generator: Adobe Illustrator 25.4.1, SVG Export Plug-In . SVG Version: 6.00 Build 0)  -->
<svg version="1.1" id="Layer_1" xmlns="http://www.w3.org/2000/svg" xmlns:xlink="http://www.w3.org/1999/xlink" x="0px" y="0px"
	 viewBox="0 0 138.65 144.97" style="enable-background:new 0 0 138.65 144.97;" xml:space="preserve">
<style type="text/css">
	.st0{fill:#DBE8F3;}
	.st1{fill:#FFFFFF;}
	.st2{fill:#16273A;}
	.st3{fill:none;stroke:#16273A;stroke-width:1.7;stroke-linecap:round;stroke-linejoin:round;stroke-miterlimit:10;}
	.st4{fill:none;stroke:#16273A;stroke-width:2;stroke-linecap:round;stroke-linejoin:round;stroke-miterlimit:10;}
	.st5{fill:#FFFFFF;stroke:#16273A;stroke-width:2.5;stroke-linecap:round;stroke-linejoin:round;stroke-miterlimit:10;}
	.st6{fill:none;stroke:#16273A;stroke-width:2.5;stroke-linecap:round;stroke-linejoin:round;stroke-miterlimit:10;}
	.st7{fill:#16273A;stroke:#16273A;stroke-width:2.5;stroke-linecap:round;stroke-linejoin:round;stroke-miterlimit:10;}
	.st8{fill:#DBE8F3;stroke:#16273A;stroke-width:2.9;stroke-linecap:round;stroke-linejoin:round;stroke-miterlimit:10;}
	.st9{fill:#FFFFFF;stroke:#16273A;stroke-width:2.9;stroke-linecap:round;stroke-linejoin:round;stroke-miterlimit:10;}
	.st10{fill:none;stroke:#16273A;stroke-width:2.9;stroke-linecap:round;stroke-linejoin:round;stroke-miterlimit:10;}
	.st11{fill:#DBE8F3;stroke:#16273A;stroke-width:2.5;stroke-linecap:round;stroke-linejoin:round;stroke-miterlimit:10;}
	.st12{fill:none;stroke:#16273A;stroke-width:1.3131;stroke-linecap:round;stroke-linejoin:round;stroke-miterlimit:10;}
	.st13{fill:none;stroke:#16273A;stroke-width:1.0699;stroke-linecap:round;stroke-linejoin:round;stroke-miterlimit:10;}
	.st14{fill:none;}
	.st15{fill:#AD3992;}
	.st16{fill:none;stroke:#16273A;stroke-width:0.8062;stroke-linecap:round;stroke-linejoin:round;stroke-miterlimit:10;}
	.st17{fill:none;stroke:#AD3992;stroke-width:3;stroke-linecap:round;stroke-linejoin:round;stroke-miterlimit:10;}
</style>
<rect class="st14" width="138.65" height="144.97"/>
<g>
	<rect x="31.01" y="34.98" class="st9" width="12.24" height="12.24"/>
	<polygon class="st0" points="20.12,58.35 119.83,58.35 123.18,56.39 123.18,47.69 118.6,44.67 109.42,44.14 20.12,44.65 
		16.18,48.32 15.47,56.12 17.03,59.02 	"/>
	<path class="st10" d="M115.87,113.77H22.78c-4.04,0-7.31-3.27-7.31-7.31v-55c0-4.04,3.27-7.31,7.31-7.31h93.09
		c4.04,0,7.31,3.27,7.31,7.31v55C123.18,110.49,119.91,113.77,115.87,113.77z"/>
	<path class="st10" d="M50.04,44.14l4.25-9.08c1.1-2.35,3.46-3.85,6.06-3.85h17.53c2.8,0,5.35,1.62,6.54,4.15l4.13,8.79"/>
	<line class="st10" x1="15.47" y1="58.35" x2="123.18" y2="58.35"/>
	<circle class="st8" cx="69.12" cy="83.58" r="30.19"/>
	<circle class="st9" cx="69.12" cy="83.58" r="17.63"/>
	<path class="st10" d="M69.12,75.52c4.45,0,8.06,3.61,8.06,8.06"/>
</g>
</svg>
