<svg id="Layer_1" data-name="Layer 1" xmlns="http://www.w3.org/2000/svg" viewBox="0 0 138.65 144.97"><defs><style>.cls-1{fill:#dbe8f3;}.cls-1,.cls-2{stroke:#16273a;stroke-linecap:round;stroke-linejoin:round;stroke-width:2.9px;}.cls-2,.cls-3{fill:none;}</style></defs><rect class="cls-1" x="94.57" y="98.93" width="6.46" height="14.2"/><path class="cls-2" d="M101,106h26.61a5.88,5.88,0,0,0,2.45-11.22L68.44,66.93"/><line class="cls-2" x1="44.08" y1="106.04" x2="94.38" y2="106.04"/><path class="cls-2" d="M57.14,45.47c.06-7.59,5-14.65,13.23-13.52,6.18.86,10.89,6.25,8.68,12.55-1.5,4.29-5.4,6.82-7.61,10.64a23.8,23.8,0,0,0-3,11.79L8.11,96a5.27,5.27,0,0,0,2.29,10H37.23"/><rect class="cls-1" x="37.61" y="98.93" width="6.46" height="14.2"/><rect class="cls-3" width="138.65" height="144.97"/></svg>