<svg id="Layer_1" data-name="Layer 1" xmlns="http://www.w3.org/2000/svg" viewBox="0 0 138.65 144.97"><defs><style>.cls-1{fill:#dbe8f3;}.cls-2,.cls-3{fill:none;}.cls-2{stroke:#16273a;stroke-linecap:round;stroke-linejoin:round;stroke-width:2.9px;}</style></defs><polygon class="cls-1" points="74.86 79.05 74.86 109.33 83.84 111.47 102.53 111.6 111.11 108.34 110.5 79.81 74.86 79.05"/><polygon class="cls-1" points="30.78 44.65 39.62 45.24 55.61 45.82 67.04 45.24 74.86 44.88 75.12 54.37 74.41 59.94 72.81 68.82 70.04 73.61 65.36 78.65 58.37 81.25 47.85 82.01 40.32 80.25 33.43 75.11 29.07 67.61 27.54 58.95 27.54 47.23 28.16 45.11 30.78 44.65"/><path class="cls-2" d="M33.32,23.15S12,82,51.25,82,69,23.15,69,23.15Z"/><line class="cls-2" x1="51.2" y1="82.01" x2="51.2" y2="121.82"/><line class="cls-2" x1="37.52" y1="121.82" x2="64.88" y2="121.82"/><path class="cls-2" d="M28.22,44.65s24.72,2.64,45.92,0"/><rect class="cls-2" x="74.86" y="79.05" width="35.64" height="42.77"/><path class="cls-2" d="M74.86,106.92s1.68,4.33,10.69,4.68,17,0,17,0,5.54-.35,8-4.68"/><line class="cls-2" x1="104.61" y1="85.99" x2="104.61" y2="101.91"/><path class="cls-2" d="M34.61,63.3S37,73.82,45.68,75.11"/><rect class="cls-3" width="138.65" height="144.97"/></svg>