<svg id="Layer_1" data-name="Layer 1" xmlns="http://www.w3.org/2000/svg" viewBox="0 0 138.65 144.97"><defs><style>.cls-1{fill:#dbe8f3;}.cls-1,.cls-2{stroke:#16273a;stroke-linecap:round;stroke-linejoin:round;stroke-width:2.9px;}.cls-2{fill:#fff;}.cls-3{fill:none;}</style></defs><circle class="cls-1" cx="69.32" cy="72.48" r="53.24"/><circle class="cls-2" cx="69.32" cy="72.48" r="42.37"/><path class="cls-1" d="M86.33,58a15.55,15.55,0,0,0-6-6.05,17.2,17.2,0,0,0-8.65-2.17H60.29a5.13,5.13,0,0,0-3.62,1.44A5,5,0,0,0,55.16,55V93.54A5.17,5.17,0,0,0,64,97.15a5.08,5.08,0,0,0,1.43-3.61V83.22h6.27a17.64,17.64,0,0,0,8.63-2.09,15.4,15.4,0,0,0,6-5.9,17,17,0,0,0,2.13-8.48A17.73,17.73,0,0,0,86.33,58ZM71.69,73.41H65.42V59.62h6.27a6.58,6.58,0,0,1,3.5.89A6.39,6.39,0,0,1,77.54,63a7.65,7.65,0,0,1,.87,3.78,6.88,6.88,0,0,1-.85,3.48,6.07,6.07,0,0,1-2.33,2.33A7,7,0,0,1,71.69,73.41Z"/><rect class="cls-3" width="138.65" height="144.97"/></svg>