<svg id="Layer_1" data-name="Layer 1" xmlns="http://www.w3.org/2000/svg" viewBox="0 0 138.65 144.97"><defs><style>.cls-1{fill:#dbe8f3;}.cls-1,.cls-2,.cls-3{stroke:#16273a;stroke-linecap:round;stroke-linejoin:round;stroke-width:2.9px;}.cls-2{fill:#fff;}.cls-3,.cls-4{fill:none;}</style></defs><path class="cls-1" d="M69.15,123.07c-4.86-6.27-9.43-12.79-13.82-19.4-8.27-12.41-18-25.45-20.82-40.53-2.57-13.55,2.38-27.23,14-35,13.3-8.89,32-8.36,44.37,1.88a33.5,33.5,0,0,1,11.83,22.9c1,11.68-4.53,22.24-10,32.16A265.19,265.19,0,0,1,69.15,123.07Z"/><circle class="cls-2" cx="69.32" cy="55.25" r="15.72"/><path class="cls-3" d="M46,44.23A25.88,25.88,0,0,1,60.5,31"/><rect class="cls-4" width="138.65" height="144.97"/></svg>