<svg id="Layer_1" data-name="Layer 1" xmlns="http://www.w3.org/2000/svg" viewBox="0 0 32 32"><defs><style>.cls-1{fill:#ad3992;}</style></defs><path class="cls-1" d="M16,30.88a1.5,1.5,0,0,1-1.5-1.5c0-7.77-4.11-11.88-11.88-11.88a1.5,1.5,0,0,1,0-3c7.77,0,11.88-4.11,11.88-11.88a1.5,1.5,0,0,1,3,0c0,7.77,4.11,11.88,11.88,11.88a1.5,1.5,0,0,1,0,3c-7.77,0-11.88,4.11-11.88,11.88A1.5,1.5,0,0,1,16,30.88ZM10,16a12.17,12.17,0,0,1,6,6,12.17,12.17,0,0,1,6-6,12.17,12.17,0,0,1-6-6A12.17,12.17,0,0,1,10,16Z"/></svg>